#!OML:ASF H:\Dans Jumps\Project 1\Capture day 1\Session 1\subject.ASF
:FULLY-SPECIFIED
:DEGREES
407
root 0.0441391 17.6859 -5.48881 3.26376 0.125742 -1.17797
lowerback 1.04056 -0.162794 -1.13073
upperback 1.82011 -0.234305 1.54434
thorax 1.29253 -0.143513 2.21709
lowerneck -8.6747 0.634241 -0.997903
upperneck 33.3583 0.96674 0.551076
head 12.445 0.37666 0.511583
rclavicle -2.28602e-015 9.34288e-015
rhumerus -44.9984 15.571 -72.8448
rradius 86.9537
rwrist 18.0384
rhand -29.8136 -29.5927
rfingers 7.12502
rthumb -3.13744 -59.5494
lclavicle -2.28602e-015 9.34288e-015
lhumerus -50.8479 -24.0506 69.19
lradius 95.8876
lwrist 46.1064
lhand -35.4165 -17.2096
lfingers 7.12502
lthumb -8.54673 12.5975
rfemur -17.048 -6.74637 19.8187
rtibia 35.0517
rfoot -11.3579 0.386204
rtoes 8.12855
lfemur -15.7354 11.2167 -18.176
ltibia 32.773
lfoot -10.9065 1.70813
ltoes -25.3315
408
root 0.0409343 17.4408 -5.46619 3.05127 0.134731 -1.21509
lowerback 1.69908 0.00556377 -1.0489
upperback 1.78901 -0.0110968 1.46849
thorax 0.88079 -0.0264576 2.09323
lowerneck -9.10138 0.528041 -0.622346
upperneck 33.6567 0.782031 0.413703
head 12.6654 0.324204 0.373186
rclavicle -1.19271e-015 3.77691e-015
rhumerus -42.9444 13.7419 -72.732
rradius 85.2215
rwrist 18.3765
rhand -29.8045 -30.2544
rfingers 7.12502
rthumb -3.12869 -60.2112
lclavicle -1.19271e-015 3.77691e-015
lhumerus -48.5049 -23.607 68.5301
lradius 94.5731
lwrist 45.9626
lhand -36.3468 -17.631
lfingers 7.12502
lthumb -9.44441 12.1374
rfemur -17.5233 -6.42484 19.9763
rtibia 37.1937
rfoot -15.4024 -1.3612
rtoes 5.98973
lfemur -16.0314 8.87536 -17.3904
ltibia 34.7668
lfoot -13.9712 2.00226
ltoes -6.43983
409
root 0.0344018 17.2214 -5.45366 2.97371 0.109105 -1.27355
lowerback 2.32226 0.0766863 -1.08337
upperback 1.7913 0.0805977 1.55274
thorax 0.530117 0.0215933 2.19773
lowerneck -9.628 0.513501 -0.539118
upperneck 34.0155 0.802 0.253699
head 12.9325 0.322215 0.303743
rclavicle 1.76421e-015 -7.95139e-016
rhumerus -40.608 12.1516 -72.6219
rradius 83.0197
rwrist 18.7963
rhand -29.7018 -31.0096
rfingers 7.12502
rthumb -3.02947 -60.9678
lclavicle 1.76421e-015 -7.95139e-016
lhumerus -46.3374 -22.6152 68.3261
lradius 92.8752
lwrist 45.8335
lhand -37.3949 -18.1263
lfingers 7.12502
lthumb -10.4556 11.5937
rfemur -18.3747 -6.08402 20.2078
rtibia 39.4176
rfoot -18.621 -3.14823
rtoes 3.83291
lfemur -16.9256 8.78589 -17.3969
ltibia 37.0138
lfoot -16.8307 4.0197
ltoes -5.87345
410
root 0.0288539 17.0312 -5.45011 3.05124 0.0704046 -1.35264
lowerback 2.85867 0.162659 -1.08074
upperback 1.83374 0.192989 1.63152
thorax 0.268172 0.0794335 2.27407
lowerneck -10.2479 0.479893 -0.455685
upperneck 34.3456 0.784485 0.123027
head 13.2109 0.307178 0.239857
rclavicle 2.11209e-015 -4.57205e-015
rhumerus -38.2803 10.3996 -72.6512
rradius 80.4975
rwrist 19.2423
rhand -29.546 -31.7363
rfingers 7.12502
rthumb -2.87903 -61.6966
lclavicle 2.11209e-015 -4.57205e-015
lhumerus -44.2103 -21.6061 68.3654
lradius 90.8561
lwrist 45.7952
lhand -38.4809 -18.6886
lfingers 7.12502
lthumb -11.5031 10.9758
rfemur -19.5668 -5.78519 20.4894
rtibia 41.7285
rfoot -20.9484 -4.87082
rtoes 3.68403
lfemur -18.1715 8.67377 -17.4405
ltibia 39.432
lfoot -18.9505 6.02108
ltoes -5.84662
